<svg xmlns="http://www.w3.org/2000/svg" width="16" height="16" id="strategy"><path d="M7.506 0V1.07A6.934 6.934 0 0 0 1.098 7.48H0v1H1.098a6.935 6.935 0 0 0 6.408 6.408V16h1v-1.113a6.935 6.935 0 0 0 6.408-6.408H16v-1H14.914A6.934 6.934 0 0 0 8.506 1.07V0h-1zm0 2.068v.983a4.965 4.965 0 0 0-4.43 4.428h-.978a5.92 5.92 0 0 1 5.408-5.41zm1 0a5.92 5.92 0 0 1 5.408 5.41h-.98a4.963 4.963 0 0 0-4.428-4.427v-.983zm-1 2.008v.979a2.975 2.975 0 0 0-2.424 2.424h-.98a3.918 3.918 0 0 1 3.404-3.403zm1 0a3.916 3.916 0 0 1 3.402 3.403h-.978a2.975 2.975 0 0 0-2.424-2.424v-.979zm-.72 1.95h.44c.97.107 1.719.9 1.749 1.892v.121a1.96 1.96 0 0 1-1.588 1.875h-.762a1.96 1.96 0 0 1-1.54-1.486v-.9a1.956 1.956 0 0 1 1.7-1.503zm.22.958c-.544 0-.996.451-.996.995 0 .543.452.996.996.996.543 0 .994-.453.994-.996 0-.544-.45-.995-.994-.995zM8 7.974h.006c-.003 0 .004.01.004 0 0 0-.007.01-.004.01S8 7.974 8 7.974zm-5.902.505h.978a4.967 4.967 0 0 0 4.43 4.427v.98A5.92 5.92 0 0 1 2.098 8.48zm2.004 0h.98a2.977 2.977 0 0 0 2.424 2.423v.98A3.921 3.921 0 0 1 4.102 8.48zm6.828 0h.978a3.92 3.92 0 0 1-3.402 3.404v-.98a2.977 2.977 0 0 0 2.424-2.424zm2.004 0h.98a5.92 5.92 0 0 1-5.408 5.408v-.98a4.965 4.965 0 0 0 4.428-4.428z" color="#000" font-family="sans-serif" font-weight="400" overflow="visible" style="line-height:normal;text-indent:0;text-align:start;text-decoration-line:none;text-decoration-style:solid;text-decoration-color:#000;text-transform:none;block-progression:tb;white-space:normal;isolation:auto;mix-blend-mode:normal;solid-color:#000;solid-opacity:1"></path></svg>