<svg xmlns="http://www.w3.org/2000/svg" fill-rule="evenodd" stroke-linejoin="round" stroke-miterlimit="2" clip-rule="evenodd" viewBox="0 0 24 24" id="window-system"><g transform="translate(-40 -40)"><rect width="24" height="24" x="40" y="40" fill="none"></rect><path fill="#2c2c2c" d="M492.895,440.561L485.309,440.55C484.97,440.55 484.645,440.685 484.406,440.924C484.166,441.164 484.031,441.488 484.031,441.828C484.031,441.828 484.031,448.597 484.031,448.597C484.031,449.235 484.504,449.777 485.138,449.863C485.138,449.863 492.722,450.888 492.722,450.888C492.775,450.896 492.835,450.9 492.893,450.9C493.201,450.9 493.5,450.789 493.733,450.584C494.011,450.341 494.17,449.991 494.17,449.623C494.17,449.623 494.17,441.838 494.17,441.838C494.17,441.133 493.599,440.562 492.895,440.561ZM481.661,440.55L475.019,440.564C474.322,440.565 473.77,441.128 473.77,441.807C473.77,441.807 473.77,446.96 473.77,446.96C473.77,447.582 474.234,448.115 474.864,448.194C474.865,448.194 481.51,449.021 481.51,449.021C481.565,449.027 481.613,449.03 481.661,449.03C481.962,449.03 482.255,448.922 482.483,448.725C482.757,448.488 482.913,448.145 482.913,447.787C482.913,447.787 482.913,441.794 482.913,441.794C482.913,441.46 482.779,441.141 482.537,440.905C482.306,440.68 481.99,440.55 481.661,440.55ZM485.831,448.14L492.37,449.024L492.37,442.36L485.831,442.351L485.831,448.14ZM475.57,442.363L475.57,446.468L481.113,447.158L481.113,442.351L475.57,442.363ZM493.831,429.417C494.11,429.66 494.27,430.012 494.27,430.384C494.27,430.384 494.27,438.166 494.27,438.166C494.27,438.875 493.695,439.45 492.986,439.45C492.986,439.45 485.275,439.45 485.275,439.45C484.567,439.45 483.992,438.875 483.992,438.166L483.992,431.416C483.992,430.772 484.468,430.228 485.105,430.143C485.105,430.143 492.816,429.111 492.818,429.111C493.186,429.062 493.553,429.174 493.831,429.417ZM481.463,430.9L474.819,431.755C474.195,431.836 473.73,432.367 473.73,432.994C473.73,432.994 473.73,438.119 473.73,438.119C473.73,438.809 474.29,439.369 474.98,439.369C474.98,439.369 481.623,439.369 481.623,439.369C482.313,439.369 482.873,438.809 482.873,438.119L482.873,432.139C482.873,431.78 482.718,431.439 482.45,431.202C482.181,430.964 481.818,430.854 481.462,430.9L481.463,430.9ZM485.792,431.868L485.792,437.65L492.47,437.65L492.47,430.974L485.792,431.868ZM475.53,433.478L475.53,437.569L481.073,437.569L481.073,432.765L475.53,433.478Z" transform="translate(-432 -388)"></path></g></svg>